<?xml version="1.0" standalone="no"?>
<!DOCTYPE svg PUBLIC "-//W3C//DTD SVG 20010904//EN"
 "http://www.w3.org/TR/2001/REC-SVG-20010904/DTD/svg10.dtd">
<svg version="1.0" xmlns="http://www.w3.org/2000/svg"
 width="960.000000pt" height="960.000000pt" viewBox="0 0 960.000000 960.000000"
 preserveAspectRatio="xMidYMid meet">

<g transform="translate(0.000000,960.000000) scale(0.100000,-0.100000)"
fill="#000000" stroke="none">
<path d="M4513 7504 c-490 -76 -907 -278 -1251 -609 -93 -88 -214 -225 -262
-295 -13 -19 -27 -37 -30 -40 -24 -22 -192 -310 -205 -352 -4 -12 -18 -43 -30
-68 -12 -25 -32 -72 -45 -105 -12 -33 -28 -76 -36 -95 -7 -19 -29 -100 -49
-180 -122 -501 -71 -1028 143 -1485 139 -295 340 -554 582 -746 41 -33 85 -69
96 -80 12 -10 24 -19 27 -19 2 0 54 -30 113 -66 98 -60 242 -134 262 -134 4 0
19 -6 33 -14 44 -23 279 -94 364 -110 166 -31 274 -39 478 -33 304 8 497 49
787 170 395 164 761 469 1005 837 28 41 52 77 55 80 12 12 118 222 157 310 40
89 103 271 103 295 0 7 14 53 30 102 70 201 86 389 51 590 -79 462 -389 801
-825 903 -98 23 -291 27 -392 9 -292 -52 -560 -230 -727 -480 -54 -82 -133
-236 -125 -245 3 -2 24 19 48 48 240 280 573 403 859 317 188 -57 345 -177
456 -349 44 -69 88 -160 81 -167 -2 -3 -30 16 -61 41 -69 56 -147 97 -243 126
-64 20 -89 22 -205 18 -113 -4 -142 -9 -202 -32 -101 -39 -196 -100 -268 -170
-63 -62 -123 -137 -96 -120 8 5 39 25 69 45 67 45 131 67 230 81 151 22 305
-35 430 -161 94 -94 143 -187 172 -328 40 -196 -7 -411 -127 -575 -68 -92
-299 -178 -479 -178 -104 0 -294 41 -333 72 -7 5 -18 6 -24 2 -7 -4 -9 -3 -6
3 4 6 -11 23 -34 37 -56 37 -218 201 -259 261 -18 28 -36 52 -40 55 -3 3 -27
41 -52 85 -41 72 -57 106 -104 225 -7 19 -26 80 -40 135 -23 86 -27 126 -31
295 -6 225 6 319 61 477 82 239 221 439 406 585 47 37 172 113 225 137 92 41
240 81 345 92 130 14 303 0 396 -30 30 -10 54 -15 54 -10 0 4 -10 11 -22 15
-13 4 -39 17 -58 28 -42 26 -193 95 -235 108 -187 56 -264 70 -418 75 -191 7
-299 -6 -462 -54 -103 -31 -279 -105 -295 -124 -3 -3 -21 -14 -40 -24 -90 -46
-360 -275 -360 -305 0 -3 -11 -17 -24 -29 -33 -31 -127 -172 -176 -264 -46
-87 -117 -265 -126 -317 -4 -19 -11 -43 -16 -54 -6 -10 -19 -71 -30 -135 -52
-314 -24 -657 70 -848 25 -51 49 -93 54 -93 4 0 8 -5 8 -12 0 -33 193 -258
312 -363 200 -178 515 -320 808 -364 284 -42 612 -3 870 104 46 19 89 35 95
35 6 0 27 11 45 25 19 14 51 28 72 31 21 4 36 10 33 14 -7 12 44 42 57 34 7
-4 3 -13 -12 -24 -27 -21 -19 -46 10 -30 24 13 30 13 30 0 0 -5 -9 -10 -19
-10 -10 0 -21 -6 -24 -14 -7 -18 -69 -36 -96 -29 -15 4 -20 -1 -23 -23 -3 -26
-10 -31 -78 -53 -41 -14 -76 -29 -78 -33 -2 -4 -20 -8 -39 -8 -20 0 -41 -6
-47 -14 -14 -18 -152 -53 -243 -62 -40 -3 -73 -10 -73 -14 0 -22 -391 -32
-398 -10 -2 5 -21 10 -43 10 -21 0 -39 4 -39 9 0 5 -16 8 -37 6 -20 -1 -79 8
-132 21 -53 13 -106 24 -119 24 -13 0 -30 7 -38 15 -9 8 -29 15 -45 15 -18 0
-29 5 -29 14 0 15 -21 26 -50 26 -9 0 -24 8 -31 18 -8 10 -46 28 -86 41 -49
16 -73 29 -76 42 -4 14 -14 19 -41 19 -31 0 -36 3 -36 24 0 17 -9 27 -30 36
-16 7 -30 16 -30 21 0 5 -3 8 -7 7 -15 -5 -93 46 -93 59 0 7 -4 13 -9 13 -11
0 -71 58 -71 69 0 4 -18 24 -40 46 -21 21 -37 42 -34 46 2 5 -9 20 -26 35 -16
15 -30 34 -30 42 0 9 -6 12 -16 8 -12 -5 -14 -1 -9 17 5 16 4 18 -4 8 -8 -12
-12 -12 -25 -2 -9 8 -16 22 -16 32 0 11 -9 28 -20 39 -11 11 -20 27 -20 35 0
8 -9 24 -20 35 -11 11 -20 31 -20 45 0 14 -4 25 -9 25 -4 0 -11 15 -14 33 -3
17 -8 39 -12 48 -4 10 0 16 10 16 8 0 15 -5 15 -10 0 -6 2 -8 5 -5 5 4 -26
101 -45 143 -33 71 -91 339 -111 505 -41 354 70 824 261 1107 17 24 30 47 30
50 0 3 12 20 28 37 15 18 43 52 62 76 39 50 166 177 208 209 15 11 54 41 86
66 33 25 65 45 72 45 7 0 14 4 16 9 5 12 119 75 228 124 138 63 398 128 590
148 121 13 397 7 462 -9 22 -6 35 -6 32 -1 -3 5 -10 9 -16 9 -6 0 -34 11 -62
24 -142 66 -354 127 -551 156 -157 24 -432 26 -572 4z m-1916 -1916 c-3 -8 -6
-5 -6 6 -1 11 2 17 5 13 3 -3 4 -12 1 -19z m3963 -1258 c0 -5 -5 -10 -11 -10
-5 0 -7 5 -4 10 3 6 8 10 11 10 2 0 4 -4 4 -10z m-323 -166 c-3 -3 -12 -4 -19
-1 -8 3 -5 6 6 6 11 1 17 -2 13 -5z"/>
<path d="M3791 4764 c0 -11 3 -14 6 -6 3 7 2 16 -1 19 -3 4 -6 -2 -5 -13z"/>
<path d="M4160 4259 c0 -5 5 -7 10 -4 6 3 10 8 10 11 0 2 -4 4 -10 4 -5 0 -10
-5 -10 -11z"/>
<path d="M1643 2275 l-34 -34 3 -162 3 -161 33 -29 32 -29 184 0 184 0 4 46
c2 25 1 47 -1 50 -2 2 -80 4 -173 4 l-168 0 0 125 0 125 169 0 169 0 4 43 c3
23 3 45 1 50 -2 4 -88 7 -190 7 l-185 0 -35 -35z"/>
<path d="M2125 2298 c-2 -7 -4 -107 -2 -223 l2 -210 45 0 45 0 3 88 3 87 129
0 130 0 0 -90 0 -90 45 0 45 0 0 225 0 225 -45 0 -45 0 0 -90 0 -90 -130 0
-129 0 -3 88 -3 87 -43 3 c-28 2 -44 -1 -47 -10z"/>
<path d="M2698 2295 c-15 -8 -32 -24 -38 -35 -13 -25 -13 -325 0 -351 24 -44
60 -51 226 -43 146 7 155 8 179 32 24 24 25 28 25 178 0 228 1 227 -215 231
-120 3 -155 0 -177 -12z m302 -210 l0 -125 -130 0 -130 0 0 125 0 125 130 0
130 0 0 -125z"/>
<path d="M3167 2303 c-10 -9 -9 -431 1 -435 4 -2 103 -2 220 0 l212 4 0 39 0
39 -160 1 c-88 1 -166 2 -172 3 -10 1 -14 45 -16 179 l-2 177 -39 0 c-21 0
-41 -3 -44 -7z"/>
<path d="M3650 2085 l0 -215 39 0 38 0 7 173 c4 95 4 192 0 215 -6 41 -8 42
-45 42 l-39 0 0 -215z"/>
<path d="M3780 2085 l1 -215 45 0 44 0 0 85 0 85 49 0 c43 0 52 -4 74 -32 14
-18 36 -45 49 -60 14 -15 33 -38 44 -52 15 -22 27 -26 66 -26 53 0 62 15 30
47 -10 10 -38 43 -62 73 -25 30 -53 64 -62 74 -19 21 -19 20 28 76 136 160
137 160 68 160 -34 0 -51 -5 -63 -19 -9 -11 -41 -49 -71 -85 -53 -64 -56 -66
-102 -66 l-48 0 0 85 0 85 -45 0 -46 0 1 -215z"/>
<path d="M4280 2085 l0 -215 195 0 195 0 0 40 0 39 -152 3 -153 3 -3 43 c-2
29 1 42 10 43 7 0 64 0 126 -1 l112 -1 0 46 c0 42 -2 46 -22 45 -13 -1 -69 -2
-126 -1 l-103 1 3 43 3 42 151 3 152 3 6 30 c3 17 3 35 0 40 -3 5 -93 9 -200
9 l-194 0 0 -215z m373 -169 c9 -23 -2 -26 -92 -24 l-86 2 85 6 c81 5 91 14
25 23 -21 3 -16 4 16 6 32 1 49 -3 52 -13z"/>
<path d="M4775 2268 c-25 -30 -27 -37 -23 -106 5 -101 19 -113 132 -110 l81 2
-85 6 c-47 3 -76 7 -66 8 10 1 25 10 32 20 10 14 33 18 121 23 l108 5 -112 2
c-70 1 -113 -2 -113 -8 0 -5 -7 -10 -16 -10 -8 0 -13 -4 -10 -9 3 -5 -3 -11
-14 -14 -11 -3 -23 -1 -26 4 -3 5 2 9 10 9 12 0 14 10 12 48 -2 26 -1 32 1 15
7 -51 23 -39 23 18 l0 50 140 -3 c77 -2 140 0 140 5 0 4 -55 8 -122 9 -92 1
-110 3 -73 8 l50 7 -45 3 -45 3 45 7 c25 4 39 8 31 8 -8 1 -11 5 -7 10 4 4 47
10 94 13 72 5 59 6 -75 7 l-161 2 -27 -32z m54 -39 c-23 -23 -30 -24 -23 -4 4
8 1 15 -5 15 -6 0 -12 -20 -13 -47 l-1 -48 -4 44 c-6 59 0 69 35 63 30 -4 30
-4 11 -23z m-46 -114 c-7 -21 -13 -19 -13 6 0 11 4 18 10 14 5 -3 7 -12 3 -20z"/>
<path d="M5265 2290 c-3 -5 -1 -10 4 -10 6 0 11 5 11 10 0 6 -2 10 -4 10 -3 0
-8 -4 -11 -10z"/>
<path d="M5140 2265 c7 -9 15 -13 17 -11 7 7 -7 26 -19 26 -6 0 -6 -6 2 -15z"/>
<path d="M5155 2200 c-3 -5 -1 -10 4 -10 6 0 11 5 11 10 0 6 -2 10 -4 10 -3 0
-8 -4 -11 -10z"/>
<path d="M4750 1957 c0 -17 4 -26 11 -22 6 4 8 13 5 21 -3 8 1 14 9 14 8 0 15
4 15 8 0 4 -9 8 -20 8 -15 0 -20 -7 -20 -29z"/>
<path d="M4815 1950 c3 -5 11 -10 16 -10 6 0 7 5 4 10 -3 6 -11 10 -16 10 -6
0 -7 -4 -4 -10z"/>
<path d="M4898 1943 c12 -2 32 -2 45 0 12 2 2 4 -23 4 -25 0 -35 -2 -22 -4z"/>
<path d="M4770 1905 c7 -8 17 -15 22 -15 6 0 5 7 -2 15 -7 8 -17 15 -22 15 -6
0 -5 -7 2 -15z"/>
</g>
</svg>
